<svg xmlns="http://www.w3.org/2000/svg" width="12.914" height="15.067" viewBox="0 0 12.914 15.067"><defs><style>.a{fill:#fff;}</style></defs><path class="a" d="M10.1,6.592a3.637,3.637,0,0,1,.752.319,3.306,3.306,0,0,1,.748.614,3.956,3.956,0,0,1,.668.971,6.094,6.094,0,0,1,.462,1.446,9.776,9.776,0,0,1,.185,1.988,3.17,3.17,0,0,1-.841,2.216,2.647,2.647,0,0,1-2.026.921H2.867A2.647,2.647,0,0,1,.84,14.146,3.168,3.168,0,0,1,0,11.931,9.772,9.772,0,0,1,.185,9.942,6.1,6.1,0,0,1,.647,8.5a3.954,3.954,0,0,1,.668-.971,3.306,3.306,0,0,1,.748-.614,3.637,3.637,0,0,1,.752-.319,4.265,4.265,0,0,1-.324-3.956,4.258,4.258,0,0,1,2.3-2.3,4.259,4.259,0,0,1,3.338,0,4.262,4.262,0,0,1,2.3,2.3A4.267,4.267,0,0,1,10.1,6.592ZM6.457,1.076a3.11,3.11,0,0,0-2.283.946A3.112,3.112,0,0,0,3.228,4.3a3.107,3.107,0,0,0,.946,2.283,3.114,3.114,0,0,0,2.283.946A3.108,3.108,0,0,0,8.74,6.587,3.111,3.111,0,0,0,9.686,4.3,3.111,3.111,0,0,0,8.74,2.022,3.11,3.11,0,0,0,6.457,1.076Zm3.59,12.914a1.623,1.623,0,0,0,1.265-.6,2.141,2.141,0,0,0,.526-1.459,6.43,6.43,0,0,0-.66-3.17,2.205,2.205,0,0,0-1.9-1.219A4.158,4.158,0,0,1,6.457,8.609,4.158,4.158,0,0,1,3.632,7.542a2.206,2.206,0,0,0-1.9,1.219,6.431,6.431,0,0,0-.66,3.17A2.139,2.139,0,0,0,1.6,13.389a1.626,1.626,0,0,0,1.265.6h7.18Z"/></svg>