<svg xmlns="http://www.w3.org/2000/svg" width="12.466" height="8.768" viewBox="0 0 12.466 8.768">
  <g id="Group_4247" data-name="Group 4247" transform="translate(-5.141 -7.711)">
    <path id="youtube" d="M7.945,13.5V10l3.367,1.758L7.945,13.5Zm7.4-4.109a2.691,2.691,0,0,0-.5-1.238A1.784,1.784,0,0,0,13.6,7.626C11.852,7.5,9.235,7.5,9.235,7.5h0s-2.617,0-4.361.126a1.784,1.784,0,0,0-1.249.528,2.7,2.7,0,0,0-.5,1.238A18.858,18.858,0,0,0,3,11.409v.946a18.868,18.868,0,0,0,.125,2.018,2.691,2.691,0,0,0,.5,1.237,2.109,2.109,0,0,0,1.375.533c1,.1,4.238.125,4.238.125s2.62,0,4.364-.13a1.783,1.783,0,0,0,1.249-.528,2.7,2.7,0,0,0,.5-1.237,18.868,18.868,0,0,0,.125-2.018v-.946a18.848,18.848,0,0,0-.125-2.018Z" transform="translate(2.141 0.211)" fill="#fff" fill-rule="evenodd"/>
  </g>
</svg>
