<svg id="ios-menu" xmlns="http://www.w3.org/2000/svg" width="23.2" height="15.75" viewBox="0 0 23.2 15.75">
  <path id="Path_8753" data-name="Path 8753" d="M26.734,12.375H5.467A1.058,1.058,0,0,1,4.5,11.25a1.058,1.058,0,0,1,.967-1.125H26.734A1.058,1.058,0,0,1,27.7,11.25,1.058,1.058,0,0,1,26.734,12.375Z" transform="translate(-4.5 -10.125)" fill="#7eb7db"/>
  <path id="Path_8754" data-name="Path 8754" d="M26.734,19.125H5.467a1.138,1.138,0,0,1,0-2.25H26.734a1.138,1.138,0,0,1,0,2.25Z" transform="translate(-4.5 -10.125)" fill="#7eb7db"/>
  <path id="Path_8755" data-name="Path 8755" d="M26.734,25.875H5.467a1.138,1.138,0,0,1,0-2.25H26.734a1.138,1.138,0,0,1,0,2.25Z" transform="translate(-4.5 -10.125)" fill="#7eb7db"/>
</svg>
