<svg xmlns="http://www.w3.org/2000/svg" width="11.567" height="9.406" viewBox="0 0 11.567 9.406">
  <g id="Group_4250" data-name="Group 4250" transform="translate(-6.426 -7.711)">
    <path id="twitter" d="M6.634,15.406a6.71,6.71,0,0,0,6.753-6.753c0-.1,0-.2,0-.305a4.835,4.835,0,0,0,1.185-1.232,4.81,4.81,0,0,1-1.365.376,2.388,2.388,0,0,0,1.046-1.315,4.721,4.721,0,0,1-1.509.574,2.373,2.373,0,0,0-4.1,1.624,2.622,2.622,0,0,0,.06.541A6.74,6.74,0,0,1,3.8,6.435a2.38,2.38,0,0,0,.736,3.17,2.4,2.4,0,0,1-1.074-.3v.032a2.379,2.379,0,0,0,1.9,2.328,2.314,2.314,0,0,1-.625.083,2.342,2.342,0,0,1-.445-.042A2.374,2.374,0,0,0,6.513,13.36a4.76,4.76,0,0,1-2.948,1.018A4.566,4.566,0,0,1,3,14.345a6.752,6.752,0,0,0,3.634,1.06" transform="translate(3.426 1.711)" fill="#fff"/>
  </g>
</svg>
